<svg width="1000" height="430" viewBox="0 0 1000 430" xmlns="http://www.w3.org/2000/svg" font-family="'Bricolage Grotesque','JetBrains Mono',sans-serif">
  <!-- transparent bg -->

  <!-- column cues -->
  <text x="300" y="28" font-family="'JetBrains Mono',monospace" font-size="11" fill="#ff2d1a" font-weight="600" letter-spacing="2" text-anchor="end">◀ AUTOMATED</text>
  <text x="960" y="28" font-family="'JetBrains Mono',monospace" font-size="11" fill="#8a7a6c" font-weight="600" letter-spacing="2" text-anchor="end">HUMAN JUDGMENT</text>

  <!-- track: 310 → 960 = 650px = 100% -->
  <!-- ROW 1 triage 90 -->
  <text x="40" y="64" font-size="16" font-weight="700" fill="#1a1411">Alert triage &amp; enrichment</text>
  <rect x="310" y="74" width="650" height="18" rx="3" fill="#e6d8cb"/>
  <rect x="310" y="74" width="585" height="18" rx="3" fill="#ff2d1a"/>
  <text x="905" y="88" font-family="'JetBrains Mono',monospace" font-size="12" font-weight="700" fill="#ff2d1a">90%</text>

  <!-- ROW 2 log 85 -->
  <text x="40" y="112" font-size="16" font-weight="700" fill="#1a1411">Log analysis</text>
  <rect x="310" y="122" width="650" height="18" rx="3" fill="#e6d8cb"/>
  <rect x="310" y="122" width="552" height="18" rx="3" fill="#ff2d1a"/>
  <text x="872" y="136" font-family="'JetBrains Mono',monospace" font-size="12" font-weight="700" fill="#ff2d1a">85%</text>

  <!-- ROW 3 reporting 75 -->
  <text x="40" y="160" font-size="16" font-weight="700" fill="#1a1411">First-pass reporting</text>
  <rect x="310" y="170" width="650" height="18" rx="3" fill="#e6d8cb"/>
  <rect x="310" y="170" width="487" height="18" rx="3" fill="#ff2d1a"/>
  <text x="807" y="184" font-family="'JetBrains Mono',monospace" font-size="12" font-weight="700" fill="#ff2d1a">75%</text>

  <!-- ROW 4 vuln 65 -->
  <text x="40" y="208" font-size="16" font-weight="700" fill="#1a1411">Vulnerability scanning</text>
  <rect x="310" y="218" width="650" height="18" rx="3" fill="#e6d8cb"/>
  <rect x="310" y="218" width="422" height="18" rx="3" fill="#ff6a59"/>
  <text x="742" y="232" font-family="'JetBrains Mono',monospace" font-size="12" font-weight="700" fill="#8a7a6c">65%</text>

  <!-- divider -->
  <line x1="40" y1="256" x2="960" y2="256" stroke="#cdbcaf" stroke-width="1" stroke-dasharray="3 5"/>

  <!-- ROW 5 exploit 30 -->
  <text x="40" y="298" font-size="16" font-weight="700" fill="#1a1411">Exploit validation</text>
  <rect x="310" y="308" width="650" height="18" rx="3" fill="#e6d8cb"/>
  <rect x="310" y="308" width="195" height="18" rx="3" fill="#f0a99e"/>
  <text x="515" y="322" font-family="'JetBrains Mono',monospace" font-size="12" font-weight="700" fill="#8a7a6c">30%</text>

  <!-- ROW 6 architecture 15 -->
  <text x="40" y="346" font-size="16" font-weight="700" fill="#1a1411">Architecture &amp; scoping</text>
  <rect x="310" y="356" width="650" height="18" rx="3" fill="#e6d8cb"/>
  <rect x="310" y="356" width="97" height="18" rx="3" fill="#f0a99e"/>
  <text x="417" y="370" font-family="'JetBrains Mono',monospace" font-size="12" font-weight="700" fill="#8a7a6c">15%</text>

  <!-- ROW 7 incident 10 -->
  <text x="40" y="394" font-size="16" font-weight="700" fill="#1a1411">Incident command</text>
  <rect x="310" y="404" width="650" height="18" rx="3" fill="#e6d8cb"/>
  <rect x="310" y="404" width="65" height="18" rx="3" fill="#f0a99e"/>
  <text x="385" y="418" font-family="'JetBrains Mono',monospace" font-size="12" font-weight="700" fill="#8a7a6c">10%</text>
</svg>
